<svg width="120" height="120" viewBox="0 0 120 120" fill="none" xmlns="http://www.w3.org/2000/svg">
<path d="M0.0478594 68.9943L31.7089 68.9939C31.9553 71.4237 32.6194 73.8147 33.6901 76.065L6.54896 92.4135C2.98837 86.2742 0.742133 78.4647 0.0478594 68.9943ZM30.9423 115.12L42.992 85.8605C41.7689 85.2083 40.595 84.4318 39.4905 83.5272L17.1122 105.903C21.6806 110.018 26.3857 113.101 30.9423 115.12ZM15.5646 104.421L37.8992 82.0888C36.7429 80.9256 35.6765 79.5458 34.6956 77.9603L7.62082 94.2687C10.0799 98.2692 12.8124 101.733 15.5646 104.421ZM89.1655 105.904L66.7734 83.5157C66.5276 83.7144 66.2792 83.9076 66.0269 84.0939L82.3669 111.216C84.6477 109.797 86.9118 107.976 89.1655 105.904ZM80.5536 112.357L64.2476 85.292C58.1616 88.6903 51.7498 89.4059 44.9315 86.7771L32.9066 115.976C49.3616 122.648 66.4168 120.737 80.5536 112.357ZM40.2494 49.6103L23.9099 22.4884C21.5274 24.0174 19.2644 25.7946 17.1108 27.7993L39.5025 50.1887C39.7482 49.9927 39.997 49.7997 40.2494 49.6103ZM0 66.8521L31.5882 66.8517C31.6565 61.2648 33.6297 56.145 37.9001 51.6159L15.565 29.2831C5.25438 40.2078 0.119897 52.7476 0 66.8521ZM53.137 45.3043L53.1384 13.7202C42.6543 13.7844 33.4477 16.6092 25.7232 21.3466L42.0286 48.4122C45.0938 46.613 48.7475 45.3699 53.137 45.3043ZM96.8301 36.6048L73.5193 59.9136C74.0497 61.476 74.3945 63.0851 74.563 64.7091H106.228C106.021 55.1042 102.852 45.7391 96.8301 36.6048ZM106.272 66.8513H74.6871C74.5773 72.767 72.3667 78.1585 68.3762 82.0888L90.7122 104.421C100.983 94.3147 105.977 81.6995 106.272 66.8513ZM55.2808 13.7672L55.2794 45.4281C56.9396 45.6162 58.5337 45.9771 60.0766 46.4724L83.3795 23.172C75.1446 17.4121 65.4386 14.1809 55.2808 13.7672ZM101.015 0.608742C91.8344 3.29392 87.9977 13.5422 91.9242 21.3911L59.727 53.5852C52.1308 49.7984 42.1699 53.2173 39.1479 62.0307C35.464 72.7745 44.8304 83.5468 55.9669 81.3743C65.8143 79.4533 70.5722 68.6739 66.3897 60.278L98.6172 28.0547C106.741 32.092 117.26 27.8051 119.572 18.2921C122.251 7.26767 111.917 -2.58008 101.015 0.608742Z" fill="white"/>
</svg>
