<svg width="46" height="31" viewBox="0 0 46 31" fill="none" xmlns="http://www.w3.org/2000/svg">
<path d="M31.625 3.75C34.675 3.75 37.6001 4.98794 39.7567 7.19149C41.9134 9.39505 43.125 12.3837 43.125 15.5C43.125 18.6163 41.9134 21.605 39.7567 23.8085C37.6001 26.0121 34.675 27.25 31.625 27.25H23C24.7866 25.8832 26.2367 24.1094 27.2348 22.0697C28.233 20.03 28.7518 17.7805 28.75 15.5C28.7518 13.2195 28.233 10.97 27.2348 8.93031C26.2367 6.89058 24.7866 5.11683 23 3.75H31.625ZM14.375 27.25C11.325 27.25 8.39994 26.0121 6.24327 23.8085C4.0866 21.605 2.875 18.6163 2.875 15.5C2.875 12.3837 4.0866 9.39505 6.24327 7.19149C8.39994 4.98794 11.325 3.75 14.375 3.75C17.425 3.75 20.3501 4.98794 22.5067 7.19149C24.6634 9.39505 25.875 12.3837 25.875 15.5C25.875 18.6163 24.6634 21.605 22.5067 23.8085C20.3501 26.0121 17.425 27.25 14.375 27.25ZM0 15.5C0 19.3954 1.5145 23.1312 4.21034 25.8856C6.90618 28.6401 10.5625 30.1875 14.375 30.1875H31.625C35.4375 30.1875 39.0938 28.6401 41.7897 25.8856C44.4855 23.1312 46 19.3954 46 15.5C46 11.6046 44.4855 7.86881 41.7897 5.11437C39.0938 2.35993 35.4375 0.8125 31.625 0.8125H14.375C10.5625 0.8125 6.90618 2.35993 4.21034 5.11437C1.5145 7.86881 0 11.6046 0 15.5H0Z" fill="#221E41"/>
</svg>
