<svg width="44" height="44" viewBox="0 0 44 44" fill="none" xmlns="http://www.w3.org/2000/svg">
<g clip-path="url(#clip0_85_865)">
<path fill-rule="evenodd" clip-rule="evenodd" d="M27.5 34.375C27.5 34.7397 27.3551 35.0894 27.0973 35.3473C26.8394 35.6051 26.4897 35.75 26.125 35.75H4.125C3.76033 35.75 3.41059 35.6051 3.15273 35.3473C2.89487 35.0894 2.75 34.7397 2.75 34.375V9.625C2.75 9.26033 2.89487 8.91059 3.15273 8.65273C3.41059 8.39487 3.76033 8.25 4.125 8.25H26.125C26.4897 8.25 26.8394 8.39487 27.0973 8.65273C27.3551 8.91059 27.5 9.26033 27.5 9.625V15.125C27.5 15.4897 27.6449 15.8394 27.9027 16.0973C28.1606 16.3551 28.5103 16.5 28.875 16.5C29.2397 16.5 29.5894 16.3551 29.8473 16.0973C30.1051 15.8394 30.25 15.4897 30.25 15.125V9.625C30.25 8.53098 29.8154 7.48177 29.0418 6.70818C28.2682 5.9346 27.219 5.5 26.125 5.5H4.125C3.03098 5.5 1.98177 5.9346 1.20818 6.70818C0.434597 7.48177 0 8.53098 0 9.625L0 34.375C0 35.469 0.434597 36.5182 1.20818 37.2918C1.98177 38.0654 3.03098 38.5 4.125 38.5H26.125C27.219 38.5 28.2682 38.0654 29.0418 37.2918C29.8154 36.5182 30.25 35.469 30.25 34.375V28.875C30.25 28.5103 30.1051 28.1606 29.8473 27.9027C29.5894 27.6449 29.2397 27.5 28.875 27.5C28.5103 27.5 28.1606 27.6449 27.9027 27.9027C27.6449 28.1606 27.5 28.5103 27.5 28.875V34.375Z" fill="#221E41"/>
<path fill-rule="evenodd" clip-rule="evenodd" d="M43.5985 22.9735C43.7265 22.8458 43.8281 22.6941 43.8975 22.527C43.9668 22.36 44.0025 22.1809 44.0025 22C44.0025 21.8192 43.9668 21.6401 43.8975 21.473C43.8281 21.306 43.7265 21.1543 43.5985 21.0265L35.3485 12.7765C35.0903 12.5183 34.7401 12.3733 34.375 12.3733C34.0099 12.3733 33.6597 12.5183 33.4015 12.7765C33.1433 13.0347 32.9983 13.3849 32.9983 13.75C32.9983 14.1152 33.1433 14.4653 33.4015 14.7235L39.3057 20.625H15.125C14.7603 20.625 14.4106 20.7699 14.1527 21.0278C13.8949 21.2856 13.75 21.6354 13.75 22C13.75 22.3647 13.8949 22.7144 14.1527 22.9723C14.4106 23.2302 14.7603 23.375 15.125 23.375H39.3057L33.4015 29.2765C33.1433 29.5347 32.9983 29.8849 32.9983 30.25C32.9983 30.6152 33.1433 30.9653 33.4015 31.2235C33.6597 31.4817 34.0099 31.6268 34.375 31.6268C34.7401 31.6268 35.0903 31.4817 35.3485 31.2235L43.5985 22.9735V22.9735Z" fill="#221E41"/>
</g>
<defs>
<clipPath id="clip0_85_865">
<rect width="44" height="44" fill="white"/>
</clipPath>
</defs>
</svg>
