<svg width="80" height="92" viewBox="0 0 80 92" fill="none" xmlns="http://www.w3.org/2000/svg">
<path fill-rule="evenodd" clip-rule="evenodd" d="M75.5002 25.875V63.25H69.7502V25.875H58.2502C55.9627 25.875 53.7689 24.9663 52.1514 23.3488C50.5339 21.7313 49.6252 19.5375 49.6252 17.25V5.75H18.0002C16.4752 5.75 15.0127 6.3558 13.9344 7.43414C12.856 8.51247 12.2502 9.97501 12.2502 11.5V63.25H6.50022V11.5C6.50022 8.45001 7.71182 5.52494 9.86849 3.36827C12.0252 1.2116 14.9502 0 18.0002 0L49.6252 0L75.5002 25.875ZM18.8685 87.9175C18.4869 87.1077 18.27 86.2301 18.2302 85.3357H22.6232C22.7031 85.7847 22.8745 86.2124 23.1267 86.5922C23.379 86.9721 23.7067 87.296 24.0895 87.5438C24.492 87.8255 24.975 88.044 25.527 88.1992C26.0732 88.3602 26.6827 88.435 27.3612 88.435C28.3042 88.435 29.092 88.3027 29.736 88.0325C30.3224 87.8133 30.832 87.4276 31.2022 86.9227C31.5288 86.4289 31.6973 85.8472 31.6852 85.2552C31.7022 84.8954 31.6315 84.5368 31.4792 84.2103C31.327 83.8838 31.0978 83.5991 30.8112 83.3808C30.2305 82.9208 29.3392 82.5527 28.149 82.271L24.5955 81.4488C23.5002 81.217 22.4522 80.8009 21.4962 80.2183C20.6511 79.7008 19.954 78.9739 19.4722 78.108C18.9831 77.1805 18.7396 76.1432 18.765 75.095C18.765 73.692 19.133 72.4672 19.8575 71.4207C20.5935 70.38 21.6055 69.5692 22.8935 68.9942C24.1872 68.4193 25.6765 68.1375 27.3612 68.1375C29.1092 68.1375 30.6042 68.425 31.8405 69.0115C33.0882 69.598 34.0485 70.3857 34.7155 71.369C35.4055 72.3465 35.785 73.4333 35.8655 74.6235H31.553C31.4545 74.0778 31.2169 73.5668 30.863 73.14C30.485 72.6813 29.9989 72.3236 29.4485 72.0993C28.7737 71.8242 28.0495 71.6911 27.321 71.7083C26.079 71.7083 25.0957 71.9958 24.377 72.5823C24.0389 72.8411 23.7665 73.1758 23.5817 73.5593C23.3969 73.9429 23.3049 74.3646 23.3132 74.7903C23.3132 75.486 23.5892 76.0553 24.1412 76.5153C24.8282 77.0243 25.623 77.3686 26.4642 77.5215L30.035 78.3438C31.2827 78.6312 32.3695 79.0338 33.2895 79.557C34.1767 80.0417 34.9204 80.7517 35.4457 81.6155C35.9632 82.4665 36.222 83.5417 36.222 84.8355C36.222 86.2557 35.8597 87.515 35.141 88.6075C34.3755 89.7326 33.2984 90.6098 32.0417 91.1318C30.6962 91.7355 29.0517 92.0403 27.1082 92.0403C25.6477 92.0403 24.3712 91.8678 23.2845 91.5228C22.2831 91.2223 21.3497 90.7302 20.536 90.0738C19.8339 89.481 19.2656 88.7461 18.8685 87.9175ZM1.02047 87.7278C0.703196 86.8703 0.543463 85.9625 0.548966 85.0482H4.94197C4.95396 85.5929 5.10011 86.1261 5.36747 86.6007C5.63222 87.0522 6.0154 87.4226 6.47553 87.6719C6.93566 87.9212 7.45521 88.04 7.97797 88.0153C9.07047 88.0153 9.87547 87.699 10.4045 87.0723C10.9277 86.4398 11.1922 85.5485 11.1922 84.3928V68.609H15.7405V84.2777C15.7405 86.8077 15.0562 88.7282 13.6877 90.0565C12.325 91.379 10.439 92.0403 8.02397 92.0403C6.91148 92.0603 5.80467 91.8772 4.75797 91.4997C3.87738 91.1633 3.07931 90.6417 2.41772 89.9703C1.80458 89.3253 1.32918 88.5623 1.02047 87.7278ZM53.2937 78.614V81.6155C53.2937 83.0875 53.0695 84.318 52.621 85.3012C52.239 86.2107 51.5943 86.9855 50.7695 87.5265C49.955 88.0181 49.0181 88.2692 48.067 88.251C47.1161 88.2674 46.1797 88.0163 45.3645 87.5265C44.5457 86.9817 43.9057 86.2077 43.5245 85.3012C43.0416 84.1342 42.8123 82.8779 42.8517 81.6155V78.614C42.8517 77.1305 43.076 75.9058 43.5245 74.9283C43.9057 74.0218 44.5457 73.2478 45.3645 72.703C46.176 72.2027 47.1138 71.9453 48.067 71.9613C49.0847 71.9613 49.9817 72.2085 50.7695 72.703C51.5943 73.244 52.239 74.0188 52.621 74.9283C53.0695 75.9058 53.2937 77.1305 53.2937 78.614ZM57.911 81.5983V78.6485C57.911 76.4808 57.5142 74.6178 56.7322 73.0537C55.9923 71.5319 54.8098 70.2692 53.3397 69.4313C51.885 68.5918 50.1255 68.1662 48.0727 68.1662C46.0257 68.1662 44.2662 68.5918 42.7827 69.4313C41.3122 70.2617 40.1305 71.5216 39.396 73.0423C38.6082 74.6005 38.2172 76.4693 38.2172 78.6485V81.5983C38.2172 83.7545 38.6082 85.6175 39.396 87.193C40.1837 88.7513 41.3107 89.953 42.7827 90.7925C44.2662 91.6263 46.0257 92.0403 48.0727 92.0403C50.1255 92.0403 51.885 91.6263 53.3455 90.7925C54.8175 89.953 55.9445 88.7513 56.7322 87.193C57.5142 85.6175 57.911 83.7545 57.911 81.5983ZM65.3285 76.222V91.6032H61.039V68.609H64.8455L74.9195 83.904H75.1035V68.609H79.416V91.609H75.644L65.5182 76.222H65.3342H65.3285Z" fill="#221E41"/>
</svg>
