<svg width="84" height="79" viewBox="0 0 84 79" fill="none" xmlns="http://www.w3.org/2000/svg">
<path fill-rule="evenodd" clip-rule="evenodd" d="M42 0C35.0713 0.0217272 28.3788 2.52071 23.1315 7.0455C19.11 10.5105 16.1962 15.0255 15.4455 19.5562C6.6465 21.4987 0 29.1637 0 38.4195C0 49.1715 8.967 57.75 19.8503 57.75H39.375V29.9617L28.1085 41.2335C27.6156 41.7264 26.9471 42.0033 26.25 42.0033C25.5529 42.0033 24.8844 41.7264 24.3915 41.2335C23.8986 40.7406 23.6217 40.0721 23.6217 39.375C23.6217 38.6779 23.8986 38.0094 24.3915 37.5165L40.1415 21.7665C40.3853 21.522 40.675 21.3281 40.9939 21.1958C41.3128 21.0634 41.6547 20.9953 42 20.9953C42.3453 20.9953 42.6872 21.0634 43.0061 21.1958C43.325 21.3281 43.6147 21.522 43.8585 21.7665L59.6085 37.5165C60.1014 38.0094 60.3783 38.6779 60.3783 39.375C60.3783 40.0721 60.1014 40.7406 59.6085 41.2335C59.1156 41.7264 58.4471 42.0033 57.75 42.0033C57.0529 42.0033 56.3844 41.7264 55.8915 41.2335L44.625 29.9617V57.75H66.612C76.1355 57.75 84 50.2425 84 40.8083C84 32.2192 77.4795 25.221 69.1215 24.0397C67.8457 10.4948 56.1225 0 42 0ZM39.375 76.125V57.75H44.625V76.125C44.625 76.8212 44.3484 77.4889 43.8562 77.9812C43.3639 78.4734 42.6962 78.75 42 78.75C41.3038 78.75 40.6361 78.4734 40.1438 77.9812C39.6516 77.4889 39.375 76.8212 39.375 76.125Z" fill="#221E41"/>
</svg>
