<svg width="24" height="25" viewBox="0 0 24 25" fill="none" xmlns="http://www.w3.org/2000/svg">
<path d="M9.375 0.434292C9.52752 0.619624 9.62096 0.846436 9.64324 1.08542C9.66553 1.32441 9.61563 1.56458 9.5 1.77492C8.59665 3.43347 8.1249 5.29256 8.12813 7.18117C8.12813 13.464 13.25 18.5515 19.5625 18.5515C20.3859 18.5515 21.1875 18.4655 21.9578 18.3015C22.1939 18.2503 22.4399 18.2699 22.665 18.3577C22.8901 18.4455 23.0843 18.5977 23.2234 18.7952C23.3703 19.0006 23.4452 19.2488 23.4364 19.5011C23.4276 19.7535 23.3357 19.9958 23.175 20.1905C21.9495 21.6959 20.4035 22.9088 18.6497 23.7408C16.896 24.5728 14.9786 25.003 13.0375 24.9999C5.83437 24.9999 0 19.1968 0 12.0468C0 6.66554 3.30313 2.04992 8.00625 0.0936671C8.24053 -0.00534564 8.50061 -0.0256676 8.74742 0.0357541C8.99424 0.0971757 9.21445 0.237024 9.375 0.434292Z" fill="#221E41"/>
</svg>
