<svg width="120" height="100" viewBox="0 0 120 100" fill="none" xmlns="http://www.w3.org/2000/svg">
<path fill-rule="evenodd" clip-rule="evenodd" d="M100.381 7.0866L102.91 10.4854C103.574 11.3824 103.408 12.6682 102.529 13.3459L99.8437 15.4291C100.332 16.7547 100.645 18.17 100.771 19.6153L103.828 20.0438C104.922 20.1933 105.684 21.2299 105.537 22.3462L104.971 26.5823C104.824 27.6986 103.809 28.486 102.715 28.3265L99.375 27.8581C98.7793 29.1837 98.0176 30.3997 97.1191 31.4861L98.9941 33.9978C99.6582 34.8948 99.4824 36.1806 98.6035 36.8584L95.2734 39.4398C94.3945 40.1176 93.1347 39.9382 92.4707 39.0511L90.4297 36.3102C89.1211 36.8085 87.7441 37.1275 86.3183 37.257L85.8984 40.3767C85.7519 41.4931 84.7363 42.2705 83.6426 42.121L79.4922 41.5429C78.3984 41.3934 77.6367 40.3568 77.7832 39.2405L78.2422 35.8317C76.9531 35.2238 75.7519 34.4463 74.6875 33.5393L72.2265 35.443C71.3476 36.1208 70.0879 35.9513 69.4238 35.0543L66.8945 31.6555C66.2304 30.7585 66.3965 29.4727 67.2754 28.795L69.9609 26.7118C69.4726 25.3762 69.1601 23.9709 69.0332 22.5257L65.9765 22.0971C64.8828 21.9476 64.1113 20.911 64.2676 19.7947L64.834 15.5586C64.9902 14.4423 65.9961 13.6649 67.0898 13.8144L70.4297 14.2829C71.0254 12.9672 71.7871 11.7412 72.6758 10.6548L70.8105 8.14312C70.1465 7.25604 70.3125 5.97029 71.1914 5.29252L74.5215 2.71104C75.4004 2.03328 76.6601 2.20272 77.3242 3.09976L79.3652 5.84071C80.664 5.34236 82.0508 5.02341 83.4668 4.89384L83.8867 1.77413C84.0332 0.657818 85.0488 -0.129583 86.1426 0.0199235L90.2929 0.598016C91.3867 0.747522 92.1582 1.7841 92.0019 2.90042L91.5429 6.30917C92.8418 6.91716 94.0332 7.6946 95.1074 8.61157L97.5683 6.70785C98.4472 6.02012 99.707 6.18956 100.381 7.0866ZM28.9746 66.8992V50.4535H37.2754C38.8183 50.4535 39.9902 50.5831 40.8008 50.8621C41.6113 51.1313 42.2754 51.6296 42.7637 52.3572C43.2617 53.0948 43.5156 53.9818 43.5156 55.0284C43.5156 55.9354 43.3203 56.7328 42.9394 57.3906C42.5586 58.0584 42.0312 58.5966 41.3672 59.0053C40.9472 59.2644 40.3613 59.4837 39.6191 59.6531C40.2148 59.8624 40.6445 60.0518 40.9082 60.2611C41.0937 60.4007 41.3574 60.6897 41.6992 61.1283C42.041 61.5668 42.2754 61.9157 42.3926 62.1549L44.8144 66.9092H39.1894L36.5332 61.8957C36.1914 61.2479 35.8984 60.8193 35.6347 60.6299C35.2734 60.3807 34.8633 60.2512 34.414 60.2512H33.9746V66.9092H28.9746V66.8992ZM46.5332 95.5347H37.2363L35.8984 100H27.5195L37.5097 72.8994H46.4941L56.4453 100H47.8515L46.5332 95.5347ZM44.7949 89.6641L41.8945 79.9163L38.9844 89.6641H44.7949ZM58.3789 72.8994H72.0312C75.0097 72.8994 77.2363 73.6171 78.7109 75.0623C80.1855 76.5075 80.9277 78.5707 80.9277 81.2319C80.9277 83.9729 80.1172 86.1158 78.5058 87.6607C76.8945 89.2056 74.4238 89.9731 71.1133 89.9731H66.6113V100H58.3789V72.8994ZM66.6113 84.4812H68.6328C70.2246 84.4812 71.3476 84.2021 71.9922 83.634C72.6367 83.0758 72.959 82.3482 72.959 81.4811C72.959 80.6339 72.6758 79.9063 72.1191 79.3182C71.5625 78.7302 70.5078 78.4312 68.9648 78.4312H66.6113V84.4812ZM84.248 72.8994H92.4804V100H84.248V72.8994ZM33.9746 57.1315H36.0742C36.2988 57.1315 36.7383 57.0517 37.3926 56.9022C37.7246 56.8324 37.998 56.663 38.2031 56.3839C38.4179 56.1048 38.5156 55.7859 38.5156 55.4271C38.5156 54.8988 38.3496 54.4802 38.0176 54.2011C37.6855 53.9121 37.0703 53.7725 36.1621 53.7725H33.9746V57.1315ZM45.7715 50.4535H59.1015V53.9619H50.7715V56.5833H58.4961V59.9322H50.7715V63.1715H59.3457V66.8893H45.7715V50.4535ZM60.5273 61.4572L65.2539 61.1582C65.3515 61.9456 65.5664 62.5336 65.8789 62.9423C66.3965 63.6001 67.1289 63.939 68.0761 63.939C68.7793 63.939 69.3359 63.7696 69.7168 63.4307C70.0976 63.0918 70.2929 62.6931 70.2929 62.2446C70.2929 61.816 70.1074 61.4372 69.7461 61.0984C69.3847 60.7595 68.5351 60.4505 67.1972 60.1415C65.0195 59.6432 63.4668 58.9754 62.5293 58.1481C61.5918 57.3208 61.123 56.2643 61.123 54.9786C61.123 54.1314 61.3672 53.334 61.8457 52.5865C62.3242 51.8389 63.0469 51.2409 64.0136 50.8123C64.9804 50.3837 66.2988 50.1744 67.9785 50.1744C70.039 50.1744 71.6015 50.5631 72.6855 51.3505C73.7597 52.1379 74.4043 53.3739 74.6094 55.0882L69.9316 55.3772C69.8047 54.6297 69.541 54.0815 69.1504 53.7526C68.75 53.4137 68.1933 53.2443 67.5 53.2443C66.9238 53.2443 66.4844 53.3739 66.1914 53.623C65.8984 53.8722 65.7519 54.1812 65.7519 54.54C65.7519 54.7992 65.8789 55.0284 66.1133 55.2477C66.3476 55.457 66.8945 55.6663 67.7734 55.8557C69.9511 56.3341 71.5136 56.8225 72.4511 57.3109C73.3886 57.7993 74.082 58.4072 74.5019 59.1348C74.9316 59.8525 75.1465 60.6698 75.1465 61.5668C75.1465 62.6233 74.8633 63.5901 74.2871 64.4772C73.7207 65.3643 72.9199 66.0421 71.8945 66.5005C70.8691 66.959 69.5801 67.1883 68.0176 67.1883C65.2832 67.1883 63.3789 66.65 62.3242 65.5736C61.2695 64.4772 60.6738 63.1117 60.5273 61.4572ZM75.8691 50.4535H91.0156V54.5201H85.9375V66.8992H80.957V54.5201H75.8691V50.4535ZM59.1113 11.4223C57.3242 11.2828 55.5176 11.3027 53.7304 11.4821C48.2324 12.0203 42.8906 14.0636 38.4765 17.562C33.3691 21.5987 29.4922 27.6388 27.998 35.6424L27.5293 38.1441L25.0879 38.5827C22.6953 39.0113 20.5566 39.5993 18.6816 40.3468C16.8652 41.0645 15.2441 41.9515 13.8281 42.9981C12.6953 43.8353 11.7187 44.7722 10.8887 45.7889C8.32029 48.9285 7.12889 52.8655 7.15818 56.8524C7.18748 60.899 8.47654 64.9855 10.8594 68.3445C11.748 69.5903 12.7734 70.7366 13.9453 71.7333C15.1367 72.74 16.4746 73.5772 17.9785 74.2051C18.8281 74.5639 19.7363 74.8629 20.6836 75.1021V82.5675C18.7304 82.2087 16.9336 81.6705 15.2539 80.9628C13.0371 80.0259 11.0742 78.8199 9.34568 77.3447C7.70506 75.9494 6.26951 74.3646 5.04881 72.6403C1.79685 68.0554 0.0390418 62.4539 -2.06662e-05 56.8723C-0.0390832 51.2309 1.67967 45.6194 5.3906 41.0744C6.59178 39.5993 8.00779 38.2438 9.62889 37.0477C11.5137 35.6523 13.6719 34.4762 16.1133 33.5094C17.7929 32.8416 19.5898 32.2835 21.4844 31.8349C23.6328 23.1237 28.2129 16.4158 34.1015 11.7612C39.6094 7.40555 46.2402 4.86394 53.0664 4.19614C56.6504 3.84729 60.2832 4.00677 63.8379 4.68453C63.7597 5.01344 63.6914 5.34236 63.6523 5.68124L63.6426 5.74104C63.5742 6.30917 63.5449 6.87729 63.5742 7.45539C62.8222 7.7544 62.1191 8.16305 61.4844 8.66141L61.4551 8.68134C60.5078 9.40894 59.707 10.3458 59.1113 11.4223ZM110.781 30.5591C111.328 31.0675 111.855 31.5957 112.373 32.1638C113.418 33.3101 114.404 34.6058 115.332 36.051C118.457 40.9548 120.059 47.5032 119.99 53.9121C119.922 60.2013 118.262 66.4607 114.863 71.0655C112.646 74.0656 109.805 76.5175 106.396 78.4611C104.062 79.7967 101.436 80.903 98.5742 81.8V74.0755C100.117 73.4875 101.553 72.8297 102.871 72.0821C105.439 70.617 107.539 68.8328 109.111 66.6899C111.553 63.3709 112.754 58.6764 112.803 53.8622C112.861 48.8089 111.65 43.7357 109.297 40.0478C108.623 38.9813 107.881 38.0245 107.1 37.1673C106.797 36.8384 106.494 36.5294 106.182 36.2304C106.23 35.7321 106.25 35.2238 106.221 34.7154C106.973 34.4164 107.676 34.0078 108.311 33.5094L108.34 33.4895C109.346 32.7021 110.186 31.7054 110.781 30.5591ZM86.0156 12.7579C90.5176 13.3858 93.6621 17.6218 93.0469 22.2167C92.4316 26.8115 88.2812 30.0309 83.7793 29.403C79.2773 28.775 76.123 24.539 76.748 19.9442C77.373 15.3493 81.5136 12.13 86.0156 12.7579Z" fill="white"/>
</svg>
