<svg width="81" height="92" viewBox="0 0 81 92" fill="none" xmlns="http://www.w3.org/2000/svg">
<path fill-rule="evenodd" clip-rule="evenodd" d="M80.5 25.875V80.5C80.5 83.55 79.2884 86.4751 77.1317 88.6317C74.9751 90.7884 72.05 92 69 92V86.25C70.525 86.25 71.9875 85.6442 73.0659 84.5659C74.1442 83.4875 74.75 82.025 74.75 80.5V25.875H63.25C60.9625 25.875 58.7687 24.9663 57.1512 23.3488C55.5337 21.7313 54.625 19.5375 54.625 17.25V5.75H23C21.475 5.75 20.0125 6.3558 18.9341 7.43414C17.8558 8.51247 17.25 9.97501 17.25 11.5V63.25H11.5V11.5C11.5 8.45001 12.7116 5.52494 14.8683 3.36827C17.0249 1.2116 19.95 0 23 0L54.625 0L80.5 25.875ZM0 85.3357C0.0325634 86.2418 0.254559 87.131 0.651687 87.9461C1.04882 88.7611 1.61227 89.484 2.30575 90.068C3.05325 90.689 3.96175 91.172 5.05425 91.517C6.14675 91.862 7.4175 92.0403 8.878 92.0403C10.8215 92.0403 12.466 91.7355 13.8115 91.1318C15.1742 90.5222 16.2035 89.6828 16.9165 88.6018C17.6416 87.4791 18.016 86.166 17.9917 84.8298C17.9917 83.5417 17.733 82.4723 17.2155 81.6097C16.6894 80.7481 15.9457 80.0401 15.0592 79.557C14.0426 78.9948 12.9475 78.5878 11.8105 78.3495L8.23975 77.5215C7.39602 77.3677 6.59912 77.0214 5.911 76.5095C5.64937 76.3069 5.43876 76.0459 5.29599 75.7474C5.15322 75.4489 5.08225 75.1211 5.08875 74.7903C5.08875 73.8932 5.4395 73.1572 6.14675 72.5823C6.8655 72.0015 7.84875 71.7083 9.0965 71.7083C9.91875 71.7083 10.626 71.8347 11.224 72.0993C11.7723 72.3245 12.2564 72.682 12.6328 73.14C12.9866 73.5668 13.2243 74.0778 13.3227 74.6235H17.6353C17.5652 73.4531 17.1688 72.3257 16.491 71.369C15.7643 70.3369 14.7704 69.522 13.616 69.0115C12.204 68.3921 10.6722 68.0936 9.131 68.1375C7.44625 68.1375 5.957 68.425 4.669 69C3.37525 69.5693 2.369 70.38 1.633 71.4207C0.90275 72.4672 0.5405 73.692 0.5405 75.095C0.5405 76.2508 0.7705 77.257 1.24775 78.108C1.71925 78.9647 2.392 79.6605 3.266 80.2183C4.14575 80.7645 5.175 81.1785 6.371 81.443L9.9245 82.271C11.1147 82.5527 11.9945 82.9208 12.581 83.3808C12.8678 83.5979 13.0976 83.8814 13.2508 84.2069C13.404 84.5323 13.4761 84.8901 13.4608 85.2495C13.4608 85.882 13.294 86.4398 12.972 86.917C12.6013 87.4251 12.0894 87.813 11.5 88.0325C10.8617 88.3027 10.0682 88.435 9.12525 88.435C8.4525 88.435 7.83725 88.3603 7.28525 88.205C6.77682 88.0644 6.29503 87.841 5.85925 87.5438C5.47669 87.2957 5.14914 86.9718 4.89692 86.592C4.6447 86.2121 4.47319 85.7846 4.393 85.3357H0ZM39.5485 93.8975L36.6332 89.6482C37.6452 88.7168 38.4157 87.5667 38.939 86.1982C39.468 84.824 39.7325 83.283 39.7325 81.5638V78.683C39.7325 76.5498 39.33 74.6982 38.5365 73.1227C37.7935 71.596 36.6151 70.3235 35.1497 69.4658C33.6777 68.6032 31.924 68.172 29.877 68.172C27.8588 68.172 26.105 68.6032 24.6215 69.4658C23.1495 70.3225 22.0168 71.5358 21.2175 73.1227C20.3956 74.8586 19.9919 76.763 20.0387 78.683V81.558C20.0387 83.6855 20.4355 85.5312 21.2175 87.1068C22.0168 88.6765 23.1495 89.8955 24.6215 90.7637C26.2292 91.6475 28.043 92.0881 29.877 92.0403C31.0513 92.0457 32.2179 91.8512 33.327 91.4652L35.0175 93.8918H39.5485V93.8975ZM24.5065 81.65V78.6485C24.5065 77.234 24.725 76.0265 25.162 75.026C25.5521 74.0995 26.2009 73.305 27.0308 72.7375C27.8801 72.1973 28.8707 71.9212 29.877 71.944C30.981 71.944 31.9298 72.2085 32.7233 72.7375C33.56 73.2974 34.2106 74.0942 34.592 75.026C35.0347 76.0265 35.2533 77.234 35.2533 78.6485V81.65C35.2533 82.593 35.1497 83.444 34.9485 84.2088C34.7472 84.9563 34.4482 85.6117 34.0573 86.1637L33.4478 85.3587L32.844 84.5135H28.6292L31.2225 88.251C30.7645 88.4374 30.2736 88.5294 29.7792 88.5213C28.7826 88.5241 27.8077 88.2298 26.979 87.676C26.156 87.0937 25.5174 86.2875 25.139 85.353C24.6864 84.1723 24.4715 82.9139 24.5065 81.65ZM47.426 87.7278H57.178V91.6032H42.8778V68.609H47.4202V87.7278H47.426Z" fill="#221E41"/>
</svg>
