<svg width="81" height="92" viewBox="0 0 81 92" fill="none" xmlns="http://www.w3.org/2000/svg">
<path fill-rule="evenodd" clip-rule="evenodd" d="M80.5 25.875V80.5C80.5 83.55 79.2884 86.4751 77.1317 88.6317C74.9751 90.7884 72.05 92 69 92V86.25C70.525 86.25 71.9875 85.6442 73.0659 84.5659C74.1442 83.4875 74.75 82.025 74.75 80.5V25.875H63.25C60.9625 25.875 58.7687 24.9663 57.1512 23.3488C55.5337 21.7313 54.625 19.5375 54.625 17.25V5.75H23C21.475 5.75 20.0125 6.3558 18.9341 7.43414C17.8558 8.51247 17.25 9.97501 17.25 11.5V63.25H11.5V11.5C11.5 8.45001 12.7116 5.52494 14.8683 3.36827C17.0249 1.2116 19.95 0 23 0L54.625 0L80.5 25.875ZM12.2647 91.1318V82.3055L19.964 68.1375H15.042L10.1258 77.8895H9.94175L5.037 68.1375H0L7.69925 82.3918V91.1318H12.2647ZM25.415 91.1318V75.8368H25.6335L31.1075 88.251H34.0745L39.514 75.831H39.7325V91.1318H43.8438V68.1375H39.2437L32.6888 83.0645H32.545L25.99 68.1375H21.3612V91.1318H25.4207H25.415ZM52.4975 87.2562H62.2495V91.1318H47.9435V68.1375H52.4917V87.2562H52.4975Z" fill="#221E41"/>
</svg>
