<svg width="70" height="92" viewBox="0 0 70 92" fill="none" xmlns="http://www.w3.org/2000/svg">
<path d="M69.5 25.875V80.5C69.5 83.55 68.2884 86.4751 66.1317 88.6317C63.9751 90.7884 61.05 92 58 92H12C8.95001 92 6.02494 90.7884 3.86827 88.6317C1.7116 86.4751 0.5 83.55 0.5 80.5V11.5C0.5 8.45001 1.7116 5.52494 3.86827 3.36827C6.02494 1.2116 8.95001 0 12 0L43.625 0L69.5 25.875ZM52.25 25.875C49.9625 25.875 47.7687 24.9663 46.1512 23.3488C44.5337 21.7313 43.625 19.5375 43.625 17.25V5.75H32.125V11.5H26.375V17.25H32.125V23H26.375V28.75H32.125V34.5H23.5V28.75H17.75V23H23.5V17.25H17.75V11.5H23.5V5.75H12C10.475 5.75 9.01247 6.3558 7.93414 7.43414C6.8558 8.51247 6.25 9.97501 6.25 11.5V80.5C6.25 82.025 6.8558 83.4875 7.93414 84.5659C9.01247 85.6442 10.475 86.25 12 86.25H58C59.525 86.25 60.9875 85.6442 62.0659 84.5659C63.1442 83.4875 63.75 82.025 63.75 80.5V25.875H52.25Z" fill="#221E41"/>
</svg>
