<svg width="64" height="84" viewBox="0 0 64 84" fill="none" xmlns="http://www.w3.org/2000/svg">
<path d="M38.7882 0H11C8.21523 0 5.54451 1.10625 3.57538 3.07538C1.60625 5.04451 0.5 7.71523 0.5 10.5V73.5C0.5 76.2848 1.60625 78.9555 3.57538 80.9246C5.54451 82.8938 8.21523 84 11 84H53C55.7848 84 58.4555 82.8938 60.4246 80.9246C62.3937 78.9555 63.5 76.2848 63.5 73.5V24.7117C63.4997 23.3195 62.9464 21.9843 61.9618 21L42.5 1.53825C41.5157 0.553616 40.1805 0.000297346 38.7882 0V0ZM39.875 18.375V7.875L55.625 23.625H45.125C43.7326 23.625 42.3973 23.0719 41.4127 22.0873C40.4281 21.1027 39.875 19.7674 39.875 18.375ZM18.875 15.75V10.5H13.625V5.25H21.5V10.5H26.75V15.75H21.5V21H26.75V26.25H21.5V31.5H26.75V36.75H18.875V31.5H13.625V26.25H18.875V21H13.625V15.75H18.875ZM18.875 39.375H24.125C25.5174 39.375 26.8527 39.9281 27.8373 40.9127C28.8219 41.8973 29.375 43.2326 29.375 44.625V49.5495L31.475 57.9442C31.7366 58.9946 31.6672 60.1001 31.2763 61.1095C30.8853 62.1189 30.1919 62.9827 29.291 63.5827L24.4085 66.8378C23.5463 67.4122 22.5334 67.7188 21.4974 67.7188C20.4613 67.7188 19.4484 67.4122 18.5863 66.8378L13.7037 63.5827C12.8038 62.982 12.1115 62.1178 11.7215 61.1085C11.3314 60.0992 11.2628 58.994 11.525 57.9442L13.625 49.5495V44.625C13.625 43.2326 14.1781 41.8973 15.1627 40.9127C16.1473 39.9281 17.4826 39.375 18.875 39.375Z" fill="#221E41"/>
</svg>
